# xmcd CD database file
#
# Track frame offsets:
#	150
#	15852
#	25414
#	36613
#	51692
#	64470
#	78624
#	95472
#	110631
#	122240
#
# Disc length: 1813 seconds
#
# Revision: 0
# Processed by: cddbd v1.5.2PL0 Copyright (c) Steve Scherf et al.
# Submitted via: CDex 1.51
#
DISCID=9107130a
DTITLE=Various Artist - Latte
DYEAR=1900
DGENRE=Jazz
TTITLE0=so nice
TTITLE1=blue for DR. John
TTITLE2=baked potato
TTITLE3=Licks
TTITLE4=Coltrane turnaround changes
TTITLE5=falling for you
TTITLE6=Danny boy
TTITLE7=I said it before
TTITLE8=batten down the hatches
TTITLE9=warm
EXTD=
EXTT0=
EXTT1=
EXTT2=
EXTT3=
EXTT4=
EXTT5=
EXTT6=
EXTT7=
EXTT8=
EXTT9=
PLAYORDER=
